# xmcd CD database file
#
# Track frame offsets:
#	150
#	25155
#	54170
#	76417
#	95222
#	118420
#	148517
#	169520
#	191002
#	220615
#
# Disc length: 3151 seconds
#
# Revision: 0
# Processed by: cddbd v1.5.1PL0 Copyright (c) Steve Scherf et al.
# Submitted via: CDex 1.50Beta5
#
DISCID=860c4d0a
DTITLE=Janara - Comfort
DYEAR=2000
DGENRE=New Age
TTITLE0=Hear
TTITLE1=Lullaby
TTITLE2=Mother Of Infinity
TTITLE3=Song Of The Inner Voice
TTITLE4=Solitude
TTITLE5=Roots
TTITLE6=I Had A Friend
TTITLE7=Child's Melody
TTITLE8=Comfort
TTITLE9=In Paradisum (Faure)
EXTD=YEAR: 2000
EXTT0=
EXTT1=
EXTT2=
EXTT3=
EXTT4=
EXTT5=
EXTT6=
EXTT7=
EXTT8=
EXTT9=
PLAYORDER=
